<?xml version="1.0" encoding="UTF-8" standalone="no"?>
<!DOCTYPE svg PUBLIC "-//W3C//DTD SVG 1.1//EN" "http://www.w3.org/Graphics/SVG/1.1/DTD/svg11.dtd">
<svg width="100%" height="100%" viewBox="0 0 740 160" version="1.1" xmlns="http://www.w3.org/2000/svg" xmlns:xlink="http://www.w3.org/1999/xlink" xml:space="preserve" xmlns:serif="http://www.serif.com/" style="fill-rule:evenodd;clip-rule:evenodd;stroke-linejoin:round;stroke-miterlimit:2;">
    <g transform="matrix(0.999087,0,0,0.999087,-0.0001,0.082606)">
        <g transform="matrix(1,0,0,1,14.8001,27.9609)">
            <path d="M0,-28C-8.174,-28 -14.8,-21.732 -14.8,-14L-14.8,0L9.867,0L9.867,-28L0,-28Z" style="fill:rgb(122,155,127);fill-rule:nonzero;"/>
        </g>
        <g transform="matrix(1,0,0,1,0.0001,45.9999)">
            <path d="M0,0L0,14L24.667,14L24.667,-14L14.8,-14C6.626,-14 0,-7.732 0,0" style="fill:rgb(122,155,127);fill-rule:nonzero;"/>
        </g>
        <g transform="matrix(1,0,0,1,0.0001,146)">
            <path d="M0,-68L0,14L24.667,14L24.667,-82L14.8,-82C6.626,-82 0,-75.732 0,-68" style="fill:rgb(122,155,127);fill-rule:nonzero;"/>
        </g>
        <g transform="matrix(1,0,0,1,143.9999,160.0002)">
            <path d="M16,-160L-6.667,-160L-6.667,-159.981L-10.667,-159.981L-10.667,-160L-21.333,-160C-30.142,-160 -37.283,-152.882 -37.329,-144.084L-37.333,-144.084L-37.333,-0.001L-21.333,-0.001L-21.333,0L-10.667,0L-10.667,-132.02L-6.667,-132.02L-6.667,0L16,0L16,-160Z" style="fill:rgb(123,127,168);fill-rule:nonzero;"/>
        </g>
        <g transform="matrix(1,0,0,1,24.6668,60)">
            <path d="M0,-28L0,0L9.867,0C18.041,0 24.667,-6.268 24.667,-14L24.667,-28L0,-28Z" style="fill:rgb(244,146,73);fill-rule:nonzero;"/>
        </g>
        <g transform="matrix(1,0,0,1,24.6668,28.0001)">
            <path d="M0,-28L0,0L9.867,0C18.041,0 24.667,-6.268 24.667,-14L24.667,-28L0,-28Z" style="fill:rgb(244,146,73);fill-rule:nonzero;"/>
        </g>
        <g transform="matrix(1,0,0,1,24.6668,91.9998)">
            <path d="M0,-28L0,68L9.867,68C18.041,68 24.667,61.732 24.667,54L24.667,-28L0,-28Z" style="fill:rgb(244,146,73);fill-rule:nonzero;"/>
        </g>
        <path d="M82.91,127.93L78.91,127.93L78.91,95.95L82.91,95.95L82.91,127.93ZM80,0.02L80,-0.02L69.33,-0.02C60.5,-0.02 53.33,6.25 53.33,13.98L53.33,27.98L93.33,27.98L93.33,32L80,32L80,31.98L69.33,31.98C60.5,31.98 53.33,38.25 53.33,45.98L53.33,59.98L80,59.98L80,59.96L93.33,59.96L93.33,64.02L69.33,64.02C60.5,64.02 53.33,70.29 53.33,78.02L53.33,160.02L80,160.02L80,159.98L93.33,159.98L93.33,160.02L106.67,160.02L106.67,0.02L80,0.02Z" style="fill:rgb(244,146,73);fill-rule:nonzero;"/>
    </g>
    <g transform="matrix(1,0,0,1,-186,40.4664)">
        <path d="M371.192,63.284L371.192,117.284L529.526,117.284L529.526,63.284L371.192,63.284ZM361.192,56.617L405.359,58.284C405.359,42.784 405.692,30.45 406.526,20.117C412.526,17.95 418.192,17.117 422.359,17.117C431.692,17.117 435.192,20.117 435.192,27.117L435.192,58.284L479.359,56.617L479.359,16.284C479.359,-11.383 468.692,-21.716 439.692,-21.716C431.526,-21.716 423.859,-20.716 416.026,-18.716C418.859,-24.716 422.526,-30.383 427.026,-36.716L382.026,-36.716C366.526,-19.05 361.192,-2.383 361.192,56.617ZM416.192,94.784L416.192,84.95L484.526,84.95L484.526,94.784L416.192,94.784ZM485.359,59.117L529.526,59.117L529.526,33.117L541.192,33.117L541.192,-6.05L529.526,-6.05L529.526,-37.383L485.359,-37.383L485.359,59.117Z" style="fill:rgb(45,55,72);fill-rule:nonzero;"/>
        <path d="M717.859,67.617L552.859,67.617L552.859,81.784L670.359,81.784L670.359,85.95L553.692,85.95L553.692,117.284L720.359,117.284L720.359,102.284L601.192,102.284L601.192,98.117L717.859,98.117L717.859,67.617ZM545.359,60.95L675.359,60.95L675.359,63.45L717.859,63.45L717.859,35.784L727.859,35.784L727.859,-4.216L717.859,-4.216L717.859,-37.383L675.359,-37.383L675.359,37.617L631.192,37.617L631.192,33.95C656.026,31.117 666.859,23.117 666.859,10.284C666.859,8.95 666.692,7.617 666.526,6.284L671.026,6.284L671.026,-14.55L547.026,-14.55L547.026,6.284L550.859,6.284C550.859,6.784 550.692,7.284 550.692,7.784L595.026,11.117C595.359,7.617 601.359,6.284 608.692,6.284C618.859,6.284 623.526,7.784 623.526,10.117C623.526,12.45 618.859,13.95 608.692,13.95C601.026,13.95 597.859,13.45 595.359,12.784L550.692,12.784C552.026,25.284 563.359,32.117 587.859,34.284L587.859,37.617L545.359,37.617L545.359,60.95ZM554.526,-18.716L663.526,-18.716L663.526,-37.883L554.526,-37.883L554.526,-18.716Z" style="fill:rgb(45,55,72);fill-rule:nonzero;"/>
        <path d="M749.526,69.117L749.526,117.284L911.192,117.284L911.192,83.117L797.026,83.117L797.026,69.117L749.526,69.117ZM734.526,16.617C734.526,45.617 759.359,64.95 796.026,64.95C833.526,64.95 857.692,45.617 857.692,14.284C857.692,-17.383 833.692,-36.55 796.026,-36.55C759.526,-36.55 734.526,-19.05 734.526,11.617L778.692,14.95C778.692,4.45 785.859,-2.05 796.026,-2.05C806.859,-2.05 813.526,4.117 813.526,13.617C813.526,23.117 806.859,29.45 796.026,29.45C786.192,29.45 779.859,23.617 778.859,16.617L734.526,16.617ZM861.192,77.284L907.859,77.284L907.859,-37.383L861.192,-38.216L861.192,77.284Z" style="fill:rgb(45,55,72);fill-rule:nonzero;"/>
    </g>
</svg>
