<?xml version="1.0" encoding="UTF-8" standalone="no"?><!DOCTYPE svg PUBLIC "-//W3C//DTD SVG 1.1//EN" "http://www.w3.org/Graphics/SVG/1.1/DTD/svg11.dtd"><svg width="100%" height="100%" viewBox="0 0 614 160" version="1.1" xmlns="http://www.w3.org/2000/svg" xmlns:xlink="http://www.w3.org/1999/xlink" xml:space="preserve" xmlns:serif="http://www.serif.com/" style="fill-rule:evenodd;clip-rule:evenodd;stroke-linejoin:round;stroke-miterlimit:2;"><rect id="Artboard1" x="0" y="0" width="613.4" height="160" style="fill:none;"/><g id="Artboard11" serif:id="Artboard1"><g><path d="M20.011,26.353c1.402,-2.336 3.927,-3.766 6.651,-3.766c2.725,0 5.25,1.43 6.651,3.766c2.207,3.678 4.67,7.784 6.906,11.51c1.438,2.396 1.475,5.381 0.099,7.813c-1.377,2.432 -3.955,3.935 -6.75,3.935c-4.443,-0 -9.369,-0 -13.812,-0c-2.795,-0 -5.373,-1.503 -6.75,-3.935c-1.377,-2.432 -1.339,-5.416 0.099,-7.813c2.236,-3.726 4.699,-7.832 6.906,-11.51Z" style="fill:#7b7fa8;"/><path d="M93.678,39.794c0.693,2.309 0.253,4.809 -1.186,6.743c-1.439,1.934 -3.707,3.073 -6.118,3.074c-3.767,0 -8.03,0 -11.797,0c-2.41,-0 -4.679,-1.14 -6.118,-3.074c-1.439,-1.934 -1.879,-4.434 -1.186,-6.743c1.18,-3.935 2.495,-8.318 3.498,-11.661c0.968,-3.225 3.936,-5.434 7.304,-5.434l4.8,-0c3.367,-0 6.336,2.209 7.304,5.434c1.003,3.343 2.318,7.727 3.498,11.661Z" style="fill:#7a9b7f;"/><path d="M128.092,37.172c-0.111,-5.489 4.255,-10.035 9.744,-10.147c5.489,-0.111 10.035,4.255 10.147,9.744c0.592,29.198 -13.772,55.462 -31.428,72.929c-19.466,19.259 -53.379,37.483 -93.848,37.714c-5.49,0.031 -9.973,-4.4 -10.004,-9.89c-0.031,-5.49 4.4,-9.973 9.89,-10.004c34.459,-0.197 63.395,-15.564 79.97,-31.963c14.167,-14.016 26.004,-34.955 25.529,-58.384Z" style="fill:#f49249;"/></g><g><path d="M184.817,147.341c-2.8,0 -5,-0.275 -6.6,-0.825c-1.6,-0.55 -2.825,-1.3 -3.675,-2.25c-0.85,-0.95 -1.375,-2.05 -1.575,-3.3c-0.2,-1.25 -0.3,-2.625 -0.3,-4.125l0,-29.7c0,-3.8 0.975,-6.925 2.925,-9.375c1.95,-2.45 5.525,-3.675 10.725,-3.675l87.3,0c2.8,-0 5,0.275 6.6,0.825c1.6,0.55 2.825,1.3 3.675,2.25c0.85,0.95 1.375,2.05 1.575,3.3c0.2,1.25 0.3,2.625 0.3,4.125l0,29.7c0,5 -1.3,8.425 -3.9,10.275c-2.6,1.85 -5.85,2.775 -9.75,2.775l-87.3,0Zm76.65,-20.25l0,-12.75l-64.5,0l0,12.75l64.5,0Zm-81.75,-42.15c-1.7,0.1 -3.45,-0.2 -5.25,-0.9c-1.8,-0.7 -3.3,-2.05 -4.5,-4.05c-2,-3.2 -2.475,-6.125 -1.425,-8.775c1.05,-2.65 3.175,-5.125 6.375,-7.425c3.8,-2.7 6.95,-5.1 9.45,-7.2c2.5,-2.1 4.5,-4.25 6,-6.45c1.5,-2.2 2.6,-4.625 3.3,-7.275c0.7,-2.65 1.1,-5.875 1.2,-9.675l0,-2.4c0,-2.5 0.35,-4.6 1.05,-6.3c0.7,-1.7 1.625,-3.05 2.775,-4.05c1.15,-1 2.475,-1.7 3.975,-2.1c1.5,-0.4 3.05,-0.6 4.65,-0.6c1.6,0 3.15,0.2 4.65,0.6c1.5,0.4 2.825,1.1 3.975,2.1c1.15,1 2.075,2.35 2.775,4.05c0.7,1.7 1.05,3.8 1.05,6.3l0,2.4c0.1,3.8 0.475,6.975 1.125,9.525c0.65,2.55 1.725,4.85 3.225,6.9c1.5,2.05 3.5,4.075 6,6.075c2.5,2 5.65,4.35 9.45,7.05c3.2,2.3 5.325,4.775 6.375,7.425c1.05,2.65 0.575,5.575 -1.425,8.775c-1.1,1.7 -2.425,2.975 -3.975,3.825c-1.55,0.85 -3.225,1.325 -5.025,1.425c-1.1,0 -2.25,-0.125 -3.45,-0.375c-1.2,-0.25 -2.35,-0.775 -3.45,-1.575c-3.5,-2.6 -7,-5.5 -10.5,-8.7c-3.5,-3.2 -6.7,-6.65 -9.6,-10.35c-2.7,3.8 -5.725,7.35 -9.075,10.65c-3.35,3.3 -6.925,6.05 -10.725,8.25c-1.3,0.8 -2.725,1.45 -4.275,1.95c-1.55,0.5 -3.125,0.8 -4.725,0.9Zm90.9,1.95c-1.6,0 -3.125,-0.2 -4.575,-0.6c-1.45,-0.4 -2.75,-1.1 -3.9,-2.1c-1.15,-1 -2.05,-2.35 -2.7,-4.05c-0.65,-1.7 -0.975,-3.85 -0.975,-6.45l0,-43.65c0,-5 1.225,-8.425 3.675,-10.275c2.45,-1.85 5.275,-2.775 8.475,-2.775c1.6,0 3.125,0.2 4.575,0.6c1.45,0.4 2.725,1.1 3.825,2.1c1.1,1 2,2.35 2.7,4.05c0.7,1.7 1.05,3.8 1.05,6.3l0,10.65l10.95,0c2.8,0 5.1,0.325 6.9,0.975c1.8,0.65 3.2,1.475 4.2,2.475c1,1 1.675,2.125 2.025,3.375c0.35,1.25 0.525,2.475 0.525,3.675c0,1.5 -0.175,2.9 -0.525,4.2c-0.35,1.3 -1.025,2.425 -2.025,3.375c-1,0.95 -2.4,1.725 -4.2,2.325c-1.8,0.6 -4.1,0.9 -6.9,0.9l-10.95,0l0,11.7c0,2.6 -0.35,4.75 -1.05,6.45c-0.7,1.7 -1.6,3.05 -2.7,4.05c-1.1,1 -2.375,1.7 -3.825,2.1c-1.45,0.4 -2.975,0.6 -4.575,0.6Z" style="fill:#353a46;fill-rule:nonzero;"/><path d="M339.317,148.991c-2.8,0 -5,-0.2 -6.6,-0.6c-1.6,-0.4 -2.825,-0.975 -3.675,-1.725c-0.85,-0.75 -1.375,-1.625 -1.575,-2.625c-0.2,-1 -0.3,-2.15 -0.3,-3.45l0,-16.35c0,-1 0.125,-1.925 0.375,-2.775c0.25,-0.85 0.775,-1.625 1.575,-2.325c0.8,-0.7 1.95,-1.25 3.45,-1.65c1.5,-0.4 3.5,-0.6 6,-0.6l74.85,0l0,-4.05l-76.2,0c-4.2,0 -7,-0.6 -8.4,-1.8c-1.4,-1.2 -2.1,-2.95 -2.1,-5.25c0,-1.8 0.7,-3.4 2.1,-4.8c1.4,-1.4 4.2,-2.1 8.4,-2.1l89.25,0c2.4,0 4.35,0.25 5.85,0.75c1.5,0.5 2.65,1.125 3.45,1.875c0.8,0.75 1.325,1.575 1.575,2.475c0.25,0.9 0.375,1.8 0.375,2.7l0,16.5c0,2.3 -0.7,4.075 -2.1,5.325c-1.4,1.25 -4.5,1.875 -9.3,1.875l-74.85,0l0,4.5l75.9,0c2.8,0 5.1,0.15 6.9,0.45c1.8,0.3 3.2,0.75 4.2,1.35c1,0.6 1.675,1.35 2.025,2.25c0.35,0.9 0.525,1.9 0.525,3c0,1.3 -0.175,2.4 -0.525,3.3c-0.35,0.9 -1.025,1.625 -2.025,2.175c-1,0.55 -2.4,0.95 -4.2,1.2c-1.8,0.25 -4.1,0.375 -6.9,0.375l-88.05,0Zm-6,-54.9c-5.6,-0 -9.275,-0.675 -11.025,-2.025c-1.75,-1.35 -2.625,-3.175 -2.625,-5.475c0,-2.7 0.875,-4.675 2.625,-5.925c1.75,-1.25 5.425,-1.875 11.025,-1.875l14.7,0l0,-5.25c-7,-0.8 -12.15,-2.65 -15.45,-5.55c-3.3,-2.9 -4.95,-7.75 -4.95,-14.55c0,-2.3 0.45,-4.3 1.35,-6c-3.9,-0.2 -6.475,-0.85 -7.725,-1.95c-1.25,-1.1 -1.875,-2.75 -1.875,-4.95c0,-1.5 0.175,-2.725 0.525,-3.675c0.35,-0.95 1.025,-1.7 2.025,-2.25c1,-0.55 2.4,-0.95 4.2,-1.2c1.8,-0.25 4.1,-0.375 6.9,-0.375l53.7,0c2.8,0 5.1,0.125 6.9,0.375c1.8,0.25 3.2,0.65 4.2,1.2c1,0.55 1.675,1.3 2.025,2.25c0.35,0.95 0.525,2.175 0.525,3.675c0,2.2 -0.625,3.85 -1.875,4.95c-1.25,1.1 -3.925,1.75 -8.025,1.95c1.1,1.7 1.65,3.7 1.65,6c0,7.2 -1.625,12.2 -4.875,15c-3.25,2.8 -8.225,4.5 -14.925,5.1l0,5.25l20.1,0c5.6,0 9.275,0.625 11.025,1.875c1.75,1.25 2.625,3.225 2.625,5.925c0,2.3 -0.875,4.125 -2.625,5.475c-1.75,1.35 -5.425,2.025 -11.025,2.025l-59.1,0Zm26.55,-34.2c3.7,0 6.1,-0.575 7.2,-1.725c1.1,-1.15 1.65,-2.725 1.65,-4.725c0,-2 -0.525,-3.575 -1.575,-4.725c-1.05,-1.15 -3.475,-1.725 -7.275,-1.725c-3.7,0 -6.1,0.575 -7.2,1.725c-1.1,1.15 -1.65,2.725 -1.65,4.725c0,2 0.55,3.575 1.65,4.725c1.1,1.15 3.5,1.725 7.2,1.725Zm-15.15,-31.95c-2.8,0 -5.1,-0.1 -6.9,-0.3c-1.8,-0.2 -3.2,-0.575 -4.2,-1.125c-1,-0.55 -1.675,-1.25 -2.025,-2.1c-0.35,-0.85 -0.525,-1.875 -0.525,-3.075c0,-1.5 0.175,-2.725 0.525,-3.675c0.35,-0.95 1.025,-1.7 2.025,-2.25c1,-0.55 2.4,-0.925 4.2,-1.125c1.8,-0.2 4.1,-0.3 6.9,-0.3l30.3,0c2.8,0 5.1,0.1 6.9,0.3c1.8,0.2 3.2,0.575 4.2,1.125c1,0.55 1.675,1.3 2.025,2.25c0.35,0.95 0.525,2.175 0.525,3.675c0,1.2 -0.175,2.225 -0.525,3.075c-0.35,0.85 -1.025,1.55 -2.025,2.1c-1,0.55 -2.4,0.925 -4.2,1.125c-1.8,0.2 -4.1,0.3 -6.9,0.3l-30.3,0Zm80.7,66c-1.6,0 -3.125,-0.2 -4.575,-0.6c-1.45,-0.4 -2.75,-1.1 -3.9,-2.1c-1.15,-1 -2.05,-2.35 -2.7,-4.05c-0.65,-1.7 -0.975,-3.85 -0.975,-6.45l0,-50.7c0,-5 1.225,-8.425 3.675,-10.275c2.45,-1.85 5.275,-2.775 8.475,-2.775c1.6,0 3.125,0.2 4.575,0.6c1.45,0.4 2.725,1.1 3.825,2.1c1.1,1 2,2.35 2.7,4.05c0.7,1.7 1.05,3.8 1.05,6.3l0,14.7l7.65,0c2.8,0 5.1,0.325 6.9,0.975c1.8,0.65 3.2,1.475 4.2,2.475c1,1 1.675,2.125 2.025,3.375c0.35,1.25 0.525,2.475 0.525,3.675c0,1.5 -0.175,2.9 -0.525,4.2c-0.35,1.3 -1.025,2.425 -2.025,3.375c-1,0.95 -2.4,1.725 -4.2,2.325c-1.8,0.6 -4.1,0.9 -6.9,0.9l-7.65,0l0,14.7c0,2.6 -0.35,4.75 -1.05,6.45c-0.7,1.7 -1.6,3.05 -2.7,4.05c-1.1,1 -2.375,1.7 -3.825,2.1c-1.45,0.4 -2.975,0.6 -4.575,0.6Z" style="fill:#353a46;fill-rule:nonzero;"/><path d="M489.317,147.341c-2.8,0 -5,-0.275 -6.6,-0.825c-1.6,-0.55 -2.825,-1.3 -3.675,-2.25c-0.85,-0.95 -1.375,-2.05 -1.575,-3.3c-0.2,-1.25 -0.3,-2.625 -0.3,-4.125l0,-24.6c0,-5 1.225,-8.425 3.675,-10.275c2.45,-1.85 5.275,-2.775 8.475,-2.775c1.6,0 3.125,0.2 4.575,0.6c1.45,0.4 2.725,1.1 3.825,2.1c1.1,1 2,2.35 2.7,4.05c0.7,1.7 1.05,3.8 1.05,6.3l0,14.4l80.4,0c2.8,0 5.1,0.3 6.9,0.9c1.8,0.6 3.2,1.375 4.2,2.325c1,0.95 1.675,2.05 2.025,3.3c0.35,1.25 0.525,2.475 0.525,3.675c0,1.5 -0.175,2.875 -0.525,4.125c-0.35,1.25 -1.025,2.35 -2.025,3.3c-1,0.95 -2.4,1.7 -4.2,2.25c-1.8,0.55 -4.1,0.825 -6.9,0.825l-92.55,0Zm15.3,-55.8c-11.8,0 -20.4,-3.15 -25.8,-9.45c-5.4,-6.3 -8.1,-15.45 -8.1,-27.45c0,-11.9 2.725,-21.05 8.175,-27.45c5.45,-6.4 14.025,-9.6 25.725,-9.6c11.7,0 20.275,3.2 25.725,9.6c5.45,6.4 8.175,15.55 8.175,27.45c0,12.7 -2.725,22.025 -8.175,27.975c-5.45,5.95 -14.025,8.925 -25.725,8.925Zm0,-19.8c2,0 3.625,-0.425 4.875,-1.275c1.25,-0.85 2.2,-2.025 2.85,-3.525c0.65,-1.5 1.1,-3.3 1.35,-5.4c0.25,-2.1 0.375,-4.4 0.375,-6.9c0,-2.5 -0.125,-4.8 -0.375,-6.9c-0.25,-2.1 -0.7,-3.9 -1.35,-5.4c-0.65,-1.5 -1.6,-2.675 -2.85,-3.525c-1.25,-0.85 -2.875,-1.275 -4.875,-1.275c-2,0 -3.625,0.425 -4.875,1.275c-1.25,0.85 -2.2,2.025 -2.85,3.525c-0.65,1.5 -1.1,3.3 -1.35,5.4c-0.25,2.1 -0.375,4.4 -0.375,6.9c0,2.5 0.125,4.8 0.375,6.9c0.25,2.1 0.7,3.9 1.35,5.4c0.65,1.5 1.6,2.675 2.85,3.525c1.25,0.85 2.875,1.275 4.875,1.275Zm73.95,30.3c-1.6,0 -3.125,-0.2 -4.575,-0.6c-1.45,-0.4 -2.75,-1.1 -3.9,-2.1c-1.15,-1 -2.05,-2.35 -2.7,-4.05c-0.65,-1.7 -0.975,-3.85 -0.975,-6.45l0,-58.8c0,-5 1.225,-8.425 3.675,-10.275c2.45,-1.85 5.275,-2.775 8.475,-2.775c1.6,0 3.125,0.2 4.575,0.6c1.45,0.4 2.725,1.1 3.825,2.1c1.1,1 2,2.35 2.7,4.05c0.7,1.7 1.05,3.8 1.05,6.3l0,58.8c0,2.6 -0.35,4.75 -1.05,6.45c-0.7,1.7 -1.6,3.05 -2.7,4.05c-1.1,1 -2.375,1.7 -3.825,2.1c-1.45,0.4 -2.975,0.6 -4.575,0.6Z" style="fill:#353a46;fill-rule:nonzero;"/></g></g></svg>