<svg xmlns="http://www.w3.org/2000/svg" version="1.1" xmlns:xlink="http://www.w3.org/1999/xlink" width="100%" height="100%"><svg xmlns="http://www.w3.org/2000/svg" version="1.1" xmlns:xlink="http://www.w3.org/1999/xlink" width="100%" height="100%"><svg width="100%" height="100%" viewBox="0 0 160 160" version="1.1" xmlns="http://www.w3.org/2000/svg" xmlns:xlink="http://www.w3.org/1999/xlink" xml:space="preserve" xmlns:serif="http://www.serif.com/" style="fill-rule:evenodd;clip-rule:evenodd;stroke-linecap:round;stroke-linejoin:round;stroke-miterlimit:1.5;"><rect id="Artboard1" x="0" y="0" width="160" height="160" style="fill:none;"></rect><g id="Artboard11" serif:id="Artboard1"><path d="M19.348,26.297c1.409,-2.349 3.948,-3.786 6.687,-3.786c2.739,0 5.277,1.437 6.687,3.786c2.219,3.698 4.695,7.825 6.943,11.571c1.445,2.409 1.483,5.409 0.099,7.854c-1.384,2.445 -3.976,3.956 -6.786,3.956c-4.466,-0 -9.419,-0 -13.885,-0c-2.809,-0 -5.402,-1.511 -6.786,-3.956c-1.384,-2.445 -1.346,-5.445 0.099,-7.854c2.248,-3.746 4.724,-7.874 6.943,-11.571Z" style="fill:#7b7fa8;"></path><path d="M93.405,39.81c0.696,2.321 0.254,4.835 -1.192,6.779c-1.446,1.944 -3.727,3.09 -6.15,3.09c-3.787,0 -8.073,0 -11.86,0c-2.423,-0 -4.704,-1.146 -6.15,-3.09c-1.446,-1.944 -1.889,-4.458 -1.192,-6.779c1.187,-3.955 2.509,-8.362 3.517,-11.723c0.973,-3.242 3.957,-5.463 7.342,-5.463l4.826,-0c3.385,-0 6.37,2.221 7.342,5.463c1.008,3.361 2.33,7.768 3.517,11.723Z" style="fill:#7a9b7f;"></path><path d="M138,36.971c0.536,26.453 -12.634,50.18 -28.63,66.005c-18.116,17.924 -49.708,34.808 -87.37,35.023" style="fill:none;stroke:#f49249;stroke-width:20px;"></path></g></svg></svg><style>@media (prefers-color-scheme: light) { :root { filter: none; } }
@media (prefers-color-scheme: dark) { :root { filter: none; } }
</style></svg>